<svg width="19" height="21" viewBox="0 0 19 21" fill="none" xmlns="http://www.w3.org/2000/svg">
<path d="M13.205 0.855469V4.65547V0.855469ZM5.60498 0.855469V4.65547V0.855469ZM17.955 10.3555C17.955 6.77302 17.955 4.98132 16.8416 3.86887C15.7282 2.75642 13.9374 2.75547 10.355 2.75547H8.45498C4.87253 2.75547 3.08083 2.75547 1.96838 3.86887C0.85593 4.98227 0.85498 6.77302 0.85498 10.3555V12.2555C0.85498 15.8379 0.85498 17.6296 1.96838 18.7421C3.08178 19.8545 4.87253 19.8555 8.45498 19.8555M0.85498 8.45547H17.955H0.85498Z" fill="#9C27B0"/>
<path d="M15.3586 16.7214L14.155 16.0555V14.4091M17.955 16.0555C17.955 17.0633 17.5546 18.0298 16.842 18.7425C16.1293 19.4551 15.1628 19.8555 14.155 19.8555C13.1472 19.8555 12.1806 19.4551 11.468 18.7425C10.7553 18.0298 10.355 17.0633 10.355 16.0555C10.355 15.0476 10.7553 14.0811 11.468 13.3685C12.1806 12.6558 13.1472 12.2555 14.155 12.2555C15.1628 12.2555 16.1293 12.6558 16.842 13.3685C17.5546 14.0811 17.955 15.0476 17.955 16.0555Z" fill="#9C27B0"/>
<path d="M13.205 0.855469V4.65547M5.60498 0.855469V4.65547M17.955 10.3555C17.955 6.77302 17.955 4.98132 16.8416 3.86887C15.7282 2.75642 13.9374 2.75547 10.355 2.75547H8.45498C4.87253 2.75547 3.08083 2.75547 1.96838 3.86887C0.85593 4.98227 0.85498 6.77302 0.85498 10.3555V12.2555C0.85498 15.8379 0.85498 17.6296 1.96838 18.7421C3.08178 19.8545 4.87253 19.8555 8.45498 19.8555M0.85498 8.45547H17.955M15.3586 16.7214L14.155 16.0555V14.4091M17.955 16.0555C17.955 17.0633 17.5546 18.0298 16.842 18.7425C16.1293 19.4551 15.1628 19.8555 14.155 19.8555C13.1472 19.8555 12.1806 19.4551 11.468 18.7425C10.7553 18.0298 10.355 17.0633 10.355 16.0555C10.355 15.0476 10.7553 14.0811 11.468 13.3685C12.1806 12.6558 13.1472 12.2555 14.155 12.2555C15.1628 12.2555 16.1293 12.6558 16.842 13.3685C17.5546 14.0811 17.955 15.0476 17.955 16.0555Z" stroke="#F6EAF8" stroke-width="1.71" stroke-linecap="round" stroke-linejoin="round"/>
</svg>
