<svg width="19" height="18" viewBox="0 0 19 18" fill="none" xmlns="http://www.w3.org/2000/svg">
<path fill-rule="evenodd" clip-rule="evenodd" d="M6.11377 10.9536L7.47135 14.9475L8.15479 12.5772L7.81925 12.2107C7.66773 11.9911 7.63525 11.7979 7.71875 11.6324C7.89966 11.2737 8.27539 11.3402 8.62638 11.3402C8.99439 11.3402 9.44743 11.2706 9.56185 11.7298C9.6005 11.8829 9.55257 12.0453 9.44434 12.2107L9.10881 12.5772L9.79224 14.9475L11.0215 10.9536C11.2859 11.1902 11.7018 11.3711 12.1842 11.5226C12.2569 11.4361 12.3342 11.351 12.4146 11.2706C13.112 10.5733 14.0768 10.1403 15.1422 10.1403C16.2075 10.1403 17.1708 10.5717 17.8697 11.2706C18.5671 11.968 19 12.9328 19 13.9981C19 15.0635 18.5686 16.0268 17.8697 16.7257C17.1724 17.423 16.2075 17.856 15.1422 17.856C14.335 17.856 13.5851 17.607 12.9651 17.1834H0.938558C0.349447 17.1385 0.0494792 16.8339 0 16.3067C0.149984 15.2908 0.191732 13.9626 0.810221 13.1446C1.03442 12.8478 1.31429 12.6282 1.62354 12.4566C2.60075 11.9107 5.22624 11.7515 6.11377 10.9536ZM13.1599 14.3275L13.8619 13.5915L14.8747 14.5656L16.4518 12.4643L17.2358 13.0967C16.8662 13.5544 15.5488 15.3619 15.2612 15.5969C15.0247 15.7902 14.6845 15.7902 14.4649 15.5784L13.1599 14.3275ZM17.4646 11.6757C16.8708 11.082 16.0498 10.714 15.1422 10.714C14.2345 10.714 13.4135 11.082 12.8197 11.6757C12.226 12.2695 11.858 13.0905 11.858 13.9981C11.858 14.9058 12.226 15.7268 12.8197 16.3206C13.4135 16.9143 14.2345 17.2823 15.1422 17.2823C16.0498 17.2823 16.8708 16.9143 17.4646 16.3206C18.0583 15.7268 18.4264 14.9058 18.4264 13.9981C18.4279 13.0905 18.0599 12.2695 17.4646 11.6757ZM5.46126 5.24188C5.56641 5.27126 5.67464 5.27435 5.78752 5.25115L5.59424 3.71885C5.6932 3.34002 5.84473 3.04469 6.04574 2.82822C6.25602 2.60247 6.51888 2.46177 6.83276 2.40146C7.2487 2.37209 7.37394 2.67514 7.78988 2.9411C9.05469 3.74977 10.1247 4.02191 11.6879 4.04201L11.4946 5.01922C11.4683 5.05942 11.4544 5.1089 11.4591 5.15993C11.4591 5.16766 11.4606 5.17694 11.4622 5.18467L11.4343 5.32383C11.4776 5.32692 11.5194 5.32846 11.5611 5.32692C11.5998 5.35011 11.6462 5.36248 11.6956 5.35784C11.9678 5.3331 12.1332 5.35784 12.1781 5.44907C12.2399 5.57277 12.1873 5.8248 12.0095 6.22991L11.1545 7.63852C10.8359 8.16269 10.5143 8.68686 10.1046 9.06878C9.71183 9.43678 9.22787 9.68109 8.56763 9.67954C7.95687 9.67799 7.49609 9.44297 7.11418 9.09507C6.71834 8.73325 6.39827 8.24 6.09521 7.75604L5.33602 6.54844L5.33293 6.5438C5.09945 6.1959 4.97884 5.89593 4.97266 5.66554C4.97111 5.58823 4.98193 5.5202 5.00822 5.46453C5.03141 5.41505 5.06698 5.37331 5.11646 5.33929C5.19841 5.28517 5.31283 5.2527 5.46126 5.24188ZM12.2121 4.96201L12.26 2.99521C12.2028 2.19582 11.9384 1.59124 11.5163 1.13511C10.4819 0.0156395 8.54907 -0.271958 7.09098 0.255304C6.84513 0.343439 6.6132 0.456313 6.40137 0.590835C5.79989 0.974298 5.31283 1.53249 5.11955 2.22519C5.07316 2.38909 5.04224 2.55299 5.02523 2.71689C4.9943 3.40651 5.01131 4.2291 5.06079 4.88315C4.99276 4.90944 4.93091 4.94036 4.87524 4.97747C4.75773 5.05633 4.6696 5.15993 4.61239 5.28208C4.55827 5.39959 4.53353 5.53257 4.53817 5.67946C4.54744 5.99025 4.69124 6.37062 4.96956 6.78501L5.72876 7.99106C6.04883 8.49822 6.38436 9.01776 6.82349 9.41977C7.27808 9.83571 7.83317 10.1171 8.57072 10.1202C9.36084 10.1218 9.93758 9.82952 10.4061 9.39194C10.8576 8.96828 11.1978 8.41782 11.5302 7.86891L12.3945 6.44484C12.3992 6.43711 12.4038 6.42783 12.4069 6.4201C12.6435 5.88356 12.6945 5.50937 12.5708 5.26198C12.4997 5.1089 12.3791 5.01304 12.2121 4.96201Z" fill="#28A745"/>
</svg>
