<svg width="24" height="13" viewBox="0 0 24 13" fill="none" xmlns="http://www.w3.org/2000/svg">
<path fill-rule="evenodd" clip-rule="evenodd" d="M18.2866 8.26848L18.6617 8.25871L18.9742 8.2509C18.6089 7.12972 18.732 6.10034 19.6071 5.22526C19.7555 5.70577 20.0895 6.10229 20.656 6.39528C20.9275 6.59647 21.1892 6.84063 21.4431 7.11995C21.4881 6.93439 21.3181 6.70976 21.1091 6.47732C21.3025 6.57303 21.4783 6.70585 21.6053 6.96173C21.7518 7.25863 21.7498 7.51061 21.701 7.83094C21.6775 7.98135 21.6424 8.12003 21.5896 8.24895H22.1073C22.6542 7.07698 22.3065 5.33855 21.1873 4.60217C20.8435 4.37754 20.5974 4.38535 20.195 4.38535C19.734 4.38535 19.4977 4.39902 19.1031 4.66076C18.521 5.04556 18.1636 5.71163 18.0132 6.63749C17.9839 7.10042 17.9624 7.89736 18.2866 8.26848ZM0 12.4231C0.0449255 11.1574 1.97477 11.1066 3.15846 10.3683L3.95149 12.4231H0ZM5.55514 11.7277H5.7114C5.85204 11.7277 5.96728 11.6125 5.96728 11.4719V11.0578C5.96728 10.9171 5.85204 10.8019 5.7114 10.8019H4.78555C4.64491 10.8019 4.52967 10.9171 4.52967 11.0578V11.4719C4.52967 11.6125 4.64491 11.7277 4.78555 11.7277H4.94376L4.80703 12.4231H5.68796L5.55514 11.7277ZM3.93587 9.47561C3.96517 9.23536 3.25612 8.44428 3.12525 8.00674C2.84789 7.5653 2.74827 7.10628 3.05103 6.63944C3.17213 6.45388 3.12135 5.95189 3.12135 5.69601C3.12135 3.15674 7.57093 3.15478 7.57093 5.69601C7.57093 6.01634 7.4967 6.43435 7.67055 6.68827C7.96159 7.11018 7.81118 7.61608 7.56507 8.00869C7.40881 8.46967 6.6646 9.21582 6.71539 9.47756C6.76032 10.7785 3.9261 10.7355 3.93587 9.47561ZM11.2548 8.97752L12.3682 12.2493L12.9288 10.3077L12.6534 10.0089C12.5284 9.8272 12.503 9.67094 12.5713 9.53421C12.7198 9.24122 13.0265 9.29395 13.3136 9.29395C13.6144 9.29395 13.9875 9.23731 14.0812 9.61429C14.1125 9.74126 14.0734 9.87213 13.9855 10.0089L13.7101 10.3077L14.2707 12.2493L15.2786 8.97752C16.5892 10.1593 19.232 9.4678 19.5524 12.4231H6.62945C6.96541 9.30958 9.93245 10.169 11.2548 8.97752ZM10.3465 4.64514C10.3524 4.82875 10.4481 5.07095 10.6376 5.35027L10.6415 5.35418L11.2646 6.34254C11.5146 6.73906 11.7724 7.13948 12.0967 7.43443C12.4034 7.7157 12.7784 7.90712 13.2706 7.90712C13.8058 7.90908 14.1945 7.70984 14.5129 7.41294C14.845 7.10237 15.1087 6.6746 15.3684 6.24683L16.0677 5.09635C16.2103 4.7721 16.2533 4.57482 16.2064 4.47911C16.181 4.42442 16.0833 4.40488 15.9271 4.4127C15.8196 4.44395 15.6927 4.442 15.5442 4.40098L15.8275 3.31495C13.6339 3.54153 12.3994 1.48863 10.8368 3.04931L11.0439 4.33457C10.7899 4.38731 10.3309 4.22323 10.3465 4.64514ZM16.2513 4.04157C16.3978 4.0865 16.5052 4.17049 16.5697 4.30136C16.6752 4.51232 16.6322 4.82484 16.4349 5.2741C16.431 5.28191 16.4271 5.28972 16.4232 5.29754L15.7142 6.46365C15.4388 6.91485 15.1614 7.36802 14.7883 7.71765C14.4016 8.08097 13.9211 8.32513 13.2667 8.32122C12.6553 8.31927 12.1944 8.08682 11.8174 7.74109C11.4541 7.40904 11.1786 6.98322 10.915 6.56522L10.2938 5.57686C10.0633 5.23308 9.94417 4.9186 9.93635 4.65881C9.93245 4.5338 9.95393 4.42246 10.0008 4.32089C10.0496 4.21737 10.1239 4.12752 10.2254 4.05915C10.2743 4.0279 10.3309 3.9986 10.3895 3.97712C10.3505 3.44387 10.3368 2.78366 10.3641 2.22893C10.3778 2.09415 10.4032 1.95937 10.4403 1.8246C10.5985 1.25619 10.9989 0.801076 11.4912 0.484644C11.665 0.37526 11.8545 0.281502 12.0576 0.20923C13.253 -0.222445 14.8352 0.0119487 15.6829 0.929992C16.0286 1.30307 16.2455 1.7992 16.2923 2.45551L16.2513 4.04157ZM19.7125 10.3995L19.9919 9.42678L19.8551 9.27637C19.7926 9.18652 19.7809 9.10644 19.8141 9.04003C19.8883 8.89353 20.0426 8.92088 20.1852 8.92088C20.3356 8.92088 20.5212 8.89158 20.5681 9.08105C20.5837 9.14355 20.5642 9.20996 20.5212 9.27833L20.3845 9.42873L20.6638 10.4015L20.1872 10.7785L19.7125 10.3995ZM22.2186 10.0616C22.0057 9.63578 21.7381 9.27442 21.4236 8.9365C22.0135 9.16504 22.6171 9.38967 23.0624 9.67094C23.3456 9.84869 23.4941 9.98346 23.6074 10.1983C23.8515 10.6573 23.8789 11.0675 23.9141 11.5656L24 12.4251H20.5525C20.4587 12.0286 20.4079 11.6965 20.2126 11.257C20.8064 10.6671 21.4431 10.1905 22.2186 10.0616ZM17.9897 9.31935C18.3198 9.1748 18.6597 9.04979 18.9566 8.9365C18.7867 9.12011 18.6304 9.30958 18.4898 9.51077C18.3316 9.44436 18.1636 9.3799 17.9897 9.31935Z" fill="#0755E9"/>
</svg>
